<svg width="285" height="59" viewBox="0 0 285 59" fill="none" xmlns="http://www.w3.org/2000/svg">
<path fill-rule="evenodd" clip-rule="evenodd" d="M70.0449 13.0332C71.8123 14.9766 72.7416 17.5388 72.6311 20.1634V34.47H66.4335V21.4796C66.4953 20.029 66.0249 18.6059 65.1107 17.478C64.6858 16.9817 64.1535 16.5886 63.5542 16.3284C62.9548 16.0683 62.3042 15.948 61.6514 15.9766C57.7843 15.9766 55.8507 18.673 55.8507 24.0658V34.47H49.6201V10.9828H55.8507V13.106C56.8265 12.1571 57.9855 11.4172 59.257 10.9316C60.5285 10.446 61.8856 10.2248 63.2455 10.2817C64.5091 10.2319 65.769 10.4514 66.9413 10.9258C68.1136 11.4002 69.1715 12.1186 70.0449 13.0332Z" fill="white"/>
<path fill-rule="evenodd" clip-rule="evenodd" d="M80.5415 0.882812V34.47H86.7523V0.882812H80.5415Z" fill="white"/>
<path fill-rule="evenodd" clip-rule="evenodd" d="M121.861 34.4703H116.702L111.622 20.6333L106.489 34.4703H101.291L92.5796 10.9368H99.1938L104.135 25.0119L109.181 10.9368H114.023L119.07 25.0582L123.964 10.9368H130.578L121.861 34.4703Z" fill="white"/>
<path d="M37.4494 35.0653L28.3812 41.1173L7.99609 30.2237L16.9319 24.2708L26.5557 29.4167C26.5557 27.3597 26.5557 22.3527 26.5557 17.855L37.4361 10.5793C37.4361 15.0506 37.4361 26.1493 37.4494 35.0653Z" fill="#8257E5"/>
<path d="M20.7949 21.7507L10.8735 16.4593C10.8735 18.5692 10.8735 23.8011 10.8735 28.3649C6.71978 31.1495 3.00257 33.6233 0.952148 34.9792C0.952148 30.4484 0.952148 19.105 0.952148 10.1427L9.71603 4.28906L30.4054 15.3481L20.7949 21.7507Z" fill="#8257E5"/>
<path fill-rule="evenodd" clip-rule="evenodd" d="M188.671 25.6603V3.38354H194.201V11.5257H206.06V16.5459H194.201V25.6603C194.201 28.7294 195.782 29.9332 198.064 29.9332C200.346 29.9332 201.92 28.7757 201.92 25.6603V25.0518H207.456V25.6603C207.456 32.0299 203.64 35.0989 198.064 35.0989C192.488 35.0989 188.671 32.0299 188.671 25.6603ZM148.311 10.9174C142.319 10.9174 138.225 14.2179 138.225 21.1496L138.238 34.4906H143.767V21.1562C143.767 17.4126 145.626 16.0897 148.325 16.0897C151.023 16.0897 152.882 17.4324 152.882 21.1562V21.3877H158.372V21.2422C158.372 14.2179 154.304 10.9174 148.311 10.9174ZM172.771 10.9174C165.515 10.9174 160.402 16.0302 160.402 23.0082C160.402 29.9863 165.515 35.0991 172.771 35.0991C178.208 35.0991 182.395 32.2616 184.114 27.8895H178.208C177.044 29.3778 175.231 30.0722 172.771 30.0722C169.523 30.0722 166.957 28.3062 166.216 24.9594H185.047V23.0082C185.047 16.0302 180.027 10.9174 172.771 10.9174ZM172.771 15.9111C175.793 15.9111 178.3 17.4721 179.187 20.5411H166.355C167.235 17.4919 169.748 15.9111 172.771 15.9111ZM210.988 11.5257V23.4711C210.988 31.1899 215.545 35.0989 222.331 35.0989C229.118 35.0989 233.675 31.1436 233.675 23.4711V11.5257H228.145V23.4711C228.145 27.8431 225.817 29.9332 222.331 29.9332C218.846 29.9332 216.518 27.8431 216.518 23.4711V11.5257H210.988ZM238.232 21.1496C238.232 14.2179 242.326 10.9174 248.319 10.9174C254.311 10.9174 258.366 14.2245 258.366 21.2422V21.3877H252.876V21.1562C252.876 17.4192 251.017 16.0963 248.325 16.0963C245.633 16.0963 243.768 17.4192 243.768 21.1628V34.4906H238.239L238.232 21.1496ZM272.686 10.9174C265.893 10.9174 261.336 14.8727 261.336 22.5452L261.309 34.4906H266.845V22.5452C266.845 18.1732 269.213 16.0831 272.699 16.0831C276.185 16.0831 278.506 18.1732 278.506 22.5452V34.4906H284.042V22.5452C284.042 14.8264 279.479 10.9174 272.686 10.9174ZM252.654 51.4297L256.607 55.3782L253.088 58.9036L244.555 50.3712V46.8458L253.088 38.3134L256.607 41.8322L252.49 45.9531H270.774C271.794 45.9505 272.802 45.7467 273.743 45.3534C274.683 44.9601 275.537 44.385 276.255 43.6612C276.972 42.9373 277.54 42.0789 277.925 41.1351C278.311 40.1914 278.506 39.1808 278.5 38.1615V34.4906H284.042V38.1615C284.039 41.6828 282.637 45.0586 280.145 47.5467C277.653 50.0347 274.276 51.4314 270.754 51.4297H252.654Z" fill="url(#paint0_linear_4_26)"/>
<defs>
<linearGradient id="paint0_linear_4_26" x1="142.451" y1="48.6053" x2="280.55" y2="48.6053" gradientUnits="userSpaceOnUse">
<stop stop-color="#8257E5"/>
<stop offset="0.53" stop-color="#D72891"/>
<stop offset="1" stop-color="#F1594B"/>
</linearGradient>
</defs>
</svg>
