<svg width="184" height="58" viewBox="0 0 184 58" fill="none" xmlns="http://www.w3.org/2000/svg">
<path fill-rule="evenodd" clip-rule="evenodd" d="M98.1043 17.3362C100.602 20.0823 101.915 23.7026 101.759 27.411V47.6261H93.0015V29.2709C93.0888 27.2212 92.424 25.2104 91.1323 23.6166C90.5319 22.9154 89.7798 22.3599 88.933 21.9923C88.0861 21.6248 87.1667 21.4547 86.2444 21.4951C80.7802 21.4951 78.0482 25.3051 78.0482 32.9251V47.6261H69.2444V14.439H78.0482V17.439C79.4269 16.0983 81.0646 15.0529 82.8611 14.3667C84.6577 13.6805 86.5753 13.3681 88.4968 13.4484C90.2823 13.378 92.0624 13.6882 93.7189 14.3586C95.3753 15.0289 96.8702 16.0439 98.1043 17.3362V17.3362Z" fill="white"/>
<path fill-rule="evenodd" clip-rule="evenodd" d="M112.936 0.167969V47.6261H121.712V0.167969H112.936Z" fill="white"/>
<path fill-rule="evenodd" clip-rule="evenodd" d="M171.32 47.6265H164.03L156.852 28.075L149.6 47.6265H142.254L129.946 14.374H139.291L146.273 34.2619L153.404 14.374H160.245L167.376 34.3274L174.291 14.374H183.637L171.32 47.6265Z" fill="white"/>
<path d="M52.0479 48.4673L39.2347 57.0187L10.4309 41.6261L23.0571 33.2149L36.6553 40.4859C36.6553 37.5794 36.6553 30.5046 36.6553 24.1494L52.0292 13.869C52.0292 20.1868 52.0292 35.8691 52.0479 48.4673Z" fill="#8257E5"/>
<path d="M28.515 29.6539L14.4963 22.1773C14.4963 25.1586 14.4963 32.5511 14.4963 38.9998C8.6271 42.9344 3.37475 46.4297 0.477539 48.3456C0.477539 41.9437 0.477539 25.9156 0.477539 13.252L12.8608 4.98096L42.0945 20.6072L28.515 29.6539Z" fill="#8257E5"/>
</svg>
